{"glyphs":{"0":{"ha":1889,"x_min":0,"x_max":0,"o":"m 1557 982 l 1557 981 l 711 982 b 139 492 326 982 139 885 l 139 1 l 332 1 l 332 3 l 1178 1 b 1750 492 1563 1 1750 99 l 1750 982 z m 1557 492 b 1171 188 1557 225 1431 189 l 332 189 l 332 492 b 718 796 332 758 458 794 l 1557 794 z "},"1":{"ha":1500,"x_min":0,"x_max":0,"o":"m 1175 982 l 56 722 l 56 529 l 1175 790 l 1175 0 l 1361 0 l 1361 982 z "},"2":{"ha":1861,"x_min":0,"x_max":0,"o":"m 690 406 l 1750 406 l 1750 492 b 1178 982 1750 843 1563 982 l 139 982 l 139 796 l 1171 796 b 1550 592 1394 796 1518 769 l 683 592 b 111 101 299 592 111 467 l 111 0 l 1750 0 l 1750 172 l 308 172 b 690 406 329 376 456 406 z "},"3":{"ha":1861,"x_min":0,"x_max":0,"o":"m 1750 492 b 1178 982 1750 857 1563 982 l 139 982 l 139 796 l 1171 796 b 1550 585 1397 796 1522 768 l 208 585 l 208 399 l 1551 399 b 1171 186 1522 214 1397 186 l 139 186 l 139 0 l 1178 0 b 1750 490 1563 0 1750 125 z "},"4":{"ha":1792,"x_min":0,"x_max":0,"o":"m 1681 576 l 1579 576 l 1579 982 l 1393 982 l 1393 576 l 649 576 b 263 881 340 576 263 638 l 263 982 l 69 982 l 69 881 b 642 390 69 515 257 390 l 1393 390 l 1393 0 l 1579 0 l 1579 390 l 1681 390 z "},"5":{"ha":1861,"x_min":0,"x_max":0,"o":"m 1750 982 l 111 982 l 111 881 b 683 390 111 515 299 390 l 1550 390 b 1171 186 1518 213 1394 186 l 139 186 l 139 0 l 1178 0 b 1750 490 1563 0 1750 125 l 1750 576 l 690 576 b 308 796 421 576 328 622 l 1750 796 z "},"6":{"ha":1833,"x_min":0,"x_max":0,"o":"m 1722 585 l 311 585 b 690 794 340 765 465 793 l 1694 793 l 1694 979 l 683 981 b 111 490 299 981 111 883 b 683 0 111 97 299 0 l 1150 0 b 1722 490 1535 0 1722 97 z m 1143 186 l 1096 186 l 1096 188 l 690 186 b 311 399 464 188 339 215 l 1524 399 b 1143 186 1494 214 1369 186 z "},"7":{"ha":1568,"x_min":0,"x_max":0,"o":"m 1499 982 l 56 982 l 56 796 l 1193 796 l 397 0 l 661 0 l 1499 838 z "},"8":{"ha":1889,"x_min":0,"x_max":0,"o":"m 1750 690 b 1458 982 1750 851 1619 982 l 431 982 b 139 690 269 982 139 851 b 217 492 139 614 168 543 b 139 292 168 439 139 368 b 431 0 139 132 269 0 l 1458 0 b 1750 292 1619 0 1750 132 b 1672 492 1750 368 1721 439 b 1750 690 1721 543 1750 614 z m 356 764 b 431 796 375 785 403 796 l 1458 796 b 1533 764 1486 796 1514 785 b 1564 690 1553 744 1564 718 b 1533 615 1564 663 1553 635 b 1458 585 1514 596 1486 585 l 431 585 b 356 615 403 585 375 596 b 325 690 336 635 325 663 b 356 764 325 718 336 744 z m 1533 218 b 1458 186 1514 197 1486 186 l 431 186 b 356 218 403 186 375 197 b 325 292 336 238 325 264 b 356 367 325 321 336 347 b 431 399 375 388 403 399 l 1458 399 b 1533 367 1486 399 1514 388 b 1564 292 1553 347 1564 321 b 1533 218 1564 264 1553 238 z "},"9":{"ha":1889,"x_min":0,"x_max":0,"o":"m 1206 982 l 739 982 b 167 492 354 982 167 885 l 167 397 l 1578 397 b 1199 188 1549 217 1424 189 l 194 189 l 194 3 l 1206 1 b 1778 492 1590 1 1778 99 b 1206 982 1778 885 1590 982 z m 746 796 l 793 796 l 793 794 l 1199 796 b 1578 583 1425 794 1550 767 l 365 583 b 746 796 394 768 519 796 z "},"A":{"ha":1889,"x_min":0,"x_max":0,"o":"m 711 982 b 139 492 326 982 139 885 l 139 0 l 332 0 l 332 194 l 1557 194 l 1557 0 l 1750 0 l 1750 982 z m 1557 381 l 332 381 l 332 492 b 718 796 332 760 458 796 l 1557 796 z "},"B":{"ha":1885,"x_min":0,"x_max":0,"o":"m 1774 690 b 1482 982 1774 851 1643 982 l 139 982 l 139 0 l 1482 0 b 1774 292 1643 0 1774 132 b 1696 492 1774 368 1744 439 b 1774 690 1744 543 1774 614 z m 1482 796 b 1557 764 1510 796 1538 785 b 1588 690 1576 744 1588 718 b 1557 615 1588 663 1576 635 b 1482 585 1538 596 1510 585 l 332 585 l 332 796 z m 1557 218 b 1482 186 1538 197 1510 186 l 332 186 l 332 399 l 1482 399 b 1557 367 1510 399 1538 388 b 1588 292 1576 347 1588 321 b 1557 218 1588 264 1576 238 z "},"C":{"ha":1889,"x_min":0,"x_max":0,"o":"m 718 796 l 1750 796 l 1750 982 l 711 982 b 139 492 326 982 139 885 l 139 0 l 1750 0 l 1750 186 l 332 186 l 332 492 b 718 796 332 758 458 794 z "},"D":{"ha":1889,"x_min":0,"x_max":0,"o":"m 1178 982 l 139 982 l 139 0 l 1750 0 l 1750 492 b 1178 982 1750 885 1563 982 z m 332 186 l 332 796 l 1171 796 b 1557 492 1431 794 1557 758 l 1557 186 z "},"E":{"ha":1889,"x_min":0,"x_max":0,"o":"m 718 796 l 1750 796 l 1750 982 l 711 982 b 139 492 326 982 139 885 l 139 0 l 1750 0 l 1750 186 l 332 186 l 332 406 l 1750 406 l 1750 578 l 338 578 b 718 796 364 767 489 794 z "},"F":{"ha":1819,"x_min":0,"x_max":0,"o":"m 718 796 l 1750 796 l 1750 982 l 711 982 b 139 492 326 982 139 885 l 139 0 l 332 0 l 332 399 l 1750 399 l 1750 585 l 339 585 b 718 796 367 767 492 794 z "},"G":{"ha":1889,"x_min":0,"x_max":0,"o":"m 718 796 l 1750 796 l 1750 982 l 711 982 b 139 492 326 982 139 885 l 139 0 l 1178 0 b 1750 485 1560 0 1747 97 l 1750 578 l 594 578 l 594 406 l 1551 406 b 1171 186 1525 215 1400 186 l 332 186 l 332 492 b 718 796 332 758 458 794 z "},"H":{"ha":1889,"x_min":0,"x_max":0,"o":"m 1557 982 l 1557 583 l 332 583 l 332 982 l 139 982 l 139 0 l 332 0 l 332 397 l 1557 397 l 1557 0 l 1750 0 l 1750 982 z "},"I":{"ha":1833,"x_min":0,"x_max":0,"o":"m 1722 796 l 1722 982 l 111 982 l 111 796 l 821 796 l 821 186 l 111 186 l 111 0 l 1722 0 l 1722 186 l 1014 186 l 1014 796 z "},"J":{"ha":1819,"x_min":0,"x_max":0,"o":"m 1681 982 l 694 982 l 694 796 l 1488 796 l 1488 186 l 649 186 b 263 490 389 188 263 224 l 263 606 l 69 606 l 69 490 b 642 0 69 97 257 0 l 1681 0 z "},"K":{"ha":1917,"x_min":0,"x_max":0,"o":"m 1563 0 l 1861 0 l 1186 640 l 1836 982 l 1446 982 l 332 408 l 332 982 l 139 982 l 139 0 l 332 0 l 332 190 l 994 539 z "},"L":{"ha":1681,"x_min":0,"x_max":0,"o":"m 332 186 l 332 982 l 139 982 l 139 0 l 1611 0 l 1611 186 z "},"M":{"ha":2042,"x_min":0,"x_max":0,"o":"m 139 0 l 332 0 l 332 796 l 924 4 l 1118 4 l 1710 796 l 1710 0 l 1903 0 l 1903 982 l 1619 982 l 1021 190 l 422 982 l 139 982 z "},"N":{"ha":1889,"x_min":0,"x_max":0,"o":"m 139 0 l 332 0 l 332 810 l 1476 0 l 1750 0 l 1750 982 l 1557 982 l 1557 172 l 432 982 l 139 982 z "},"O":{"ha":1889,"x_min":0,"x_max":0,"o":"m 1750 982 l 711 982 b 139 492 326 982 139 885 l 139 0 l 1178 0 b 1750 490 1563 0 1750 97 z m 1557 490 b 1171 186 1557 224 1431 188 l 332 186 l 332 492 b 718 796 332 758 458 794 l 1557 796 z "},"P":{"ha":1778,"x_min":0,"x_max":0,"o":"m 1431 982 l 139 982 l 139 0 l 332 0 l 332 399 l 1431 399 b 1722 690 1592 399 1722 529 b 1431 982 1722 851 1592 982 z m 1506 615 b 1431 585 1486 596 1458 585 l 332 585 l 332 796 l 1431 796 b 1506 764 1458 796 1486 785 b 1536 690 1525 744 1536 718 b 1506 615 1536 663 1525 635 z "},"Q":{"ha":1889,"x_min":0,"x_max":0,"o":"m 1750 982 l 711 982 b 139 492 326 982 139 885 l 139 0 l 1178 0 b 1424 19 1271 0 1353 6 l 1450 0 l 1750 0 l 1614 103 b 1750 490 1706 176 1750 297 z m 1557 490 b 1444 229 1557 346 1519 269 l 1053 522 l 753 522 l 1201 186 l 1171 186 l 332 186 l 332 492 b 718 796 332 758 458 794 l 1557 796 z "},"R":{"ha":1819,"x_min":0,"x_max":0,"o":"m 1482 0 l 1736 0 l 1315 399 l 1431 399 b 1722 690 1592 399 1722 529 b 1431 982 1722 851 1592 982 l 139 982 l 139 0 l 332 0 l 332 399 l 1060 399 z m 332 796 l 1431 796 b 1506 764 1458 796 1486 785 b 1536 690 1525 744 1536 718 b 1506 615 1536 663 1525 635 b 1431 585 1486 596 1458 585 l 332 585 z "},"S":{"ha":1889,"x_min":0,"x_max":0,"o":"m 704 796 l 1764 796 l 1764 982 l 697 982 b 125 492 313 982 125 885 l 125 399 l 1565 399 b 1185 186 1536 214 1411 186 l 125 186 l 125 0 l 1192 0 b 1764 490 1576 0 1764 97 l 1764 585 l 325 585 b 704 796 353 768 478 796 z "},"T":{"ha":1718,"x_min":0,"x_max":0,"o":"m 1676 982 l 42 982 l 42 796 l 763 796 l 763 0 l 956 0 l 956 796 l 1676 796 z "},"U":{"ha":1875,"x_min":0,"x_max":0,"o":"m 1543 982 l 1543 186 l 704 186 b 318 490 444 186 318 222 l 318 982 l 125 982 l 125 490 b 697 0 125 97 313 0 l 1736 0 l 1736 982 z "},"V":{"ha":2140,"x_min":0,"x_max":0,"o":"m 939 0 l 1201 0 l 2085 982 l 1808 982 l 1071 146 l 332 982 l 56 982 z "},"W":{"ha":2856,"x_min":0,"x_max":0,"o":"m 2524 982 l 1786 146 l 1561 400 l 2085 982 l 1808 982 l 1428 551 l 1047 982 l 771 982 l 1294 400 l 1071 146 l 332 982 l 56 982 l 939 0 l 1201 0 l 1428 251 l 1654 0 l 1917 0 l 2800 982 z "},"X":{"ha":1806,"x_min":0,"x_max":0,"o":"m 1750 982 l 1426 982 l 903 607 l 379 982 l 56 982 l 742 492 l 56 0 l 379 0 l 903 375 l 1426 0 l 1750 0 l 1065 492 z "},"Y":{"ha":1947,"x_min":0,"x_max":0,"o":"m 1892 982 l 1593 982 l 974 482 l 354 982 l 56 982 l 878 314 l 878 0 l 1071 0 l 1071 315 z "},"Z":{"ha":1861,"x_min":0,"x_max":0,"o":"m 324 399 l 1736 399 l 1736 492 b 1164 982 1736 885 1549 982 l 125 982 l 125 796 l 1157 796 b 1536 585 1383 796 1508 768 l 125 585 l 125 490 b 697 0 125 97 313 0 l 1736 0 l 1736 186 l 704 186 b 324 399 478 186 353 214 z "},"a":{"ha":1875,"x_min":0,"x_max":0,"o":"m 1178 982 l 139 982 l 139 0 l 332 0 l 332 194 l 1557 194 l 1557 0 l 1750 0 l 1750 492 b 1178 982 1750 885 1563 982 z m 332 381 l 332 796 l 1171 796 b 1557 492 1431 796 1557 760 l 1557 381 z "},"b":{"ha":1889,"x_min":0,"x_max":0,"o":"m 1750 889 l 1750 982 l 139 982 l 139 0 l 1750 0 l 1750 94 b 1588 492 1750 289 1696 417 b 1750 889 1696 567 1750 694 z m 1551 796 b 1171 585 1531 629 1435 585 l 332 585 l 332 796 z m 332 399 l 1171 399 b 1551 186 1436 399 1531 353 l 332 186 z "},"c":{"ha":1861,"x_min":0,"x_max":0,"o":"m 1750 796 l 1750 982 l 139 982 l 139 490 b 711 0 139 97 326 0 l 1750 0 l 1750 186 l 718 186 b 332 490 458 188 332 224 l 332 796 z "},"d":{"ha":1889,"x_min":0,"x_max":0,"o":"m 1750 982 l 139 982 l 139 0 l 1178 -1 b 1750 489 1563 -1 1750 96 z m 1171 185 l 332 186 l 332 796 l 1557 796 l 1557 489 b 1171 185 1557 222 1431 186 z "},"e":{"ha":1889,"x_min":0,"x_max":0,"o":"m 1750 796 l 1750 982 l 139 982 l 139 490 b 711 0 139 97 326 0 l 1750 0 l 1750 186 l 718 186 b 338 404 489 188 364 215 l 1750 404 l 1750 576 l 332 576 l 332 796 z "},"f":{"ha":1681,"x_min":0,"x_max":0,"o":"m 1611 796 l 1611 982 l 139 982 l 139 0 l 332 0 l 332 397 l 1611 397 l 1611 583 l 332 583 l 332 796 z "},"g":{"ha":1889,"x_min":0,"x_max":0,"o":"m 1750 796 l 1750 982 l 139 982 l 139 490 b 711 0 139 97 326 0 l 1750 0 l 1750 578 l 588 578 l 588 406 l 1557 406 l 1557 186 l 718 186 b 332 490 458 188 332 224 l 332 796 z "},"h":{"ha":1889,"x_min":0,"x_max":0,"o":"m 1557 982 l 1557 583 l 332 583 l 332 982 l 139 982 l 139 0 l 332 0 l 332 397 l 1557 397 l 1557 0 l 1750 0 l 1750 982 z "},"i":{"ha":471,"x_min":0,"x_max":0,"o":"m 139 0 l 332 0 l 332 982 l 139 982 z "},"j":{"ha":1819,"x_min":0,"x_max":0,"o":"m 1681 982 l 875 982 l 875 796 l 1488 796 l 1488 186 l 649 186 b 263 490 389 188 263 224 l 263 606 l 69 606 l 69 490 b 642 0 69 97 257 0 l 1681 0 z "},"k":{"ha":1917,"x_min":0,"x_max":0,"o":"m 1576 0 l 1861 0 l 1215 613 l 1836 982 l 1486 982 l 332 299 l 332 982 l 139 982 l 139 0 l 332 0 l 332 88 l 1040 508 z "},"l":{"ha":1681,"x_min":0,"x_max":0,"o":"m 332 186 l 332 982 l 139 982 l 139 0 l 1611 0 l 1611 186 z "},"m":{"ha":2042,"x_min":0,"x_max":0,"o":"m 139 0 l 332 0 l 332 796 l 924 4 l 1118 4 l 1710 796 l 1710 0 l 1903 0 l 1903 982 l 1619 982 l 1021 190 l 422 982 l 139 982 z "},"n":{"ha":1889,"x_min":0,"x_max":0,"o":"m 139 0 l 332 0 l 332 810 l 1476 0 l 1750 0 l 1750 982 l 1557 982 l 1557 172 l 432 982 l 139 982 z "},"o":{"ha":1889,"x_min":0,"x_max":0,"o":"m 1178 982 l 139 982 l 139 490 b 711 0 139 97 326 0 l 1750 0 l 1750 492 b 1178 982 1750 885 1563 982 z m 718 186 b 332 490 458 188 332 224 l 332 796 l 1171 796 b 1557 492 1431 794 1557 758 l 1557 186 z "},"p":{"ha":1806,"x_min":0,"x_max":0,"o":"m 1750 982 l 139 982 l 139 0 l 332 0 l 332 399 l 1178 399 b 1750 889 1563 399 1750 524 z m 1171 585 l 332 585 l 332 796 l 1551 796 b 1171 585 1531 629 1435 585 z "},"q":{"ha":1889,"x_min":0,"x_max":0,"o":"m 1750 982 l 711 982 b 139 492 326 982 139 885 l 139 0 l 1178 0 b 1408 17 1265 0 1342 6 l 1426 0 l 1681 0 l 1590 85 b 1750 490 1697 157 1750 282 z m 1557 490 b 1442 226 1557 343 1518 267 l 1179 475 l 924 475 l 1228 188 b 1171 186 1210 186 1190 186 l 332 186 l 332 492 b 718 796 332 758 458 794 l 1557 796 z "},"r":{"ha":1847,"x_min":0,"x_max":0,"o":"m 1510 0 l 1764 0 l 1335 407 b 1750 889 1614 440 1750 578 l 1750 982 l 139 982 l 139 0 l 332 0 l 332 399 l 1088 399 z m 332 796 l 1551 796 b 1171 585 1531 629 1435 585 l 332 585 z "},"s":{"ha":1889,"x_min":0,"x_max":0,"o":"m 1764 982 l 125 982 l 125 896 b 697 406 125 503 313 406 l 1185 406 b 1565 186 1411 406 1536 372 l 175 186 l 175 0 l 1764 0 l 1764 88 b 1192 578 1764 481 1576 578 l 704 578 b 325 796 478 578 353 611 l 1764 796 z "},"t":{"ha":1718,"x_min":0,"x_max":0,"o":"m 1676 982 l 42 982 l 42 796 l 763 796 l 763 0 l 956 0 l 956 796 l 1676 796 z "},"u":{"ha":1875,"x_min":0,"x_max":0,"o":"m 1557 982 l 1557 490 b 1171 186 1557 222 1431 186 l 332 186 l 332 982 l 139 982 l 139 0 l 1178 0 b 1750 490 1563 0 1750 97 l 1750 982 z "},"v":{"ha":2140,"x_min":0,"x_max":0,"o":"m 939 0 l 1201 0 l 2085 982 l 1808 982 l 1071 149 l 332 982 l 56 982 z "},"w":{"ha":2750,"x_min":0,"x_max":0,"o":"m 2418 982 l 1681 149 l 1510 342 l 2085 982 l 1808 982 l 1375 493 l 942 982 l 665 982 l 1242 342 l 1071 149 l 332 982 l 56 982 l 939 0 l 1201 0 l 1375 193 l 1549 0 l 1811 0 l 2694 982 z "},"x":{"ha":1806,"x_min":0,"x_max":0,"o":"m 1750 982 l 1426 982 l 903 607 l 379 982 l 56 982 l 742 492 l 56 0 l 379 0 l 903 375 l 1426 0 l 1750 0 l 1065 492 z "},"y":{"ha":1863,"x_min":0,"x_max":0,"o":"m 1736 583 l 1736 982 l 1543 982 l 1543 585 l 704 585 b 318 889 444 592 318 628 l 318 982 l 125 982 l 125 896 b 697 406 125 503 313 406 l 1539 406 b 1158 186 1513 214 1388 186 l 200 186 l 200 0 l 1165 0 b 1738 490 1550 0 1738 97 l 1738 583 z "},"z":{"ha":1861,"x_min":0,"x_max":0,"o":"m 704 406 l 1164 406 b 1736 896 1549 406 1736 503 l 1736 982 l 125 982 l 125 796 l 1536 796 b 1157 578 1508 611 1383 578 l 697 578 b 125 88 313 578 125 481 l 125 0 l 1686 0 l 1686 186 l 324 186 b 704 406 353 372 478 406 z "},",":{"ha":464,"x_min":0,"x_max":0,"o":"m 139 -278 l 325 -278 l 325 149 l 139 149 z "},"!":{"ha":464,"x_min":0,"x_max":0,"o":"m 139 347 l 325 347 l 325 982 l 139 982 z m 139 0 l 325 0 l 325 186 l 139 186 z "},".":{"ha":464,"x_min":0,"x_max":0,"o":"m 139 0 l 325 0 l 325 186 l 139 186 z "},"?":{"ha":1875,"x_min":0,"x_max":0,"o":"m 1164 982 l 139 982 l 139 796 l 1157 796 b 1536 592 1381 796 1504 769 l 946 592 b 653 300 785 592 653 460 l 839 300 b 871 374 839 328 850 354 b 946 406 890 394 917 406 l 1736 406 l 1736 492 b 1164 982 1736 843 1549 982 z m 653 0 l 839 0 l 839 186 l 653 186 z "}," ":{"ha":556,"x_min":0,"x_max":0,"o":""},"@":{"ha":1889,"x_min":0,"x_max":0,"o":"m 1458 982 l 432 982 b 139 689 271 982 139 850 l 139 -4 b 432 -296 139 -165 271 -296 l 1750 -296 l 1750 -110 l 432 -110 b 325 -4 372 -110 325 -62 l 325 689 b 432 796 325 747 374 796 l 1457 796 b 1564 689 1515 796 1564 747 l 1564 564 b 1457 585 1531 578 1494 585 l 736 585 l 728 585 b 443 293 571 581 443 450 l 443 292 b 736 0 444 131 575 0 l 1457 0 b 1750 292 1618 0 1749 131 b 1750 293 1750 292 1750 292 l 1750 690 b 1458 982 1750 851 1619 982 z m 1457 186 l 736 186 b 629 293 678 186 629 235 b 736 399 629 350 678 399 l 1457 399 b 1564 293 1515 399 1564 350 b 1457 186 1564 235 1515 186 z "},"&":{"ha":1903,"x_min":0,"x_max":0,"o":"m 1833 585 l 1572 585 l 1572 694 l 1386 694 l 1386 585 l 718 585 b 338 797 492 585 367 613 l 1250 797 l 1250 983 l 275 983 l 275 982 l 139 982 l 139 889 b 308 492 139 697 194 569 b 139 94 194 414 139 286 l 139 0 l 1572 0 l 1572 399 l 1833 399 z m 1386 186 l 338 186 b 718 399 367 371 492 399 l 1386 399 z "}}}
